<svg xmlns="http://www.w3.org/2000/svg" viewBox="0 0 29.24 29.25"><g id="Capa_2" data-name="Capa 2"><g id="Capa_1-2" data-name="Capa 1"><path id="Trazado_47" data-name="Trazado 47" d="M26.57,8.61H11a2.68,2.68,0,0,0-2.68,2.68V22.13A2.68,2.68,0,0,0,11,24.81h8.92a.75.75,0,0,1,.53.22l4.43,4.09c.25.23.65.14.65-.2V25.35c0-.42.27-.55.69-.55h.07a2.92,2.92,0,0,0,3-2.67V11.29a2.65,2.65,0,0,0-2.65-2.68Z" style="fill:#fff"/><path id="Trazado_48" data-name="Trazado 48" d="M8.89,6.88H21.36V2.29A2.3,2.3,0,0,0,19.07,0H2.29A2.3,2.3,0,0,0,0,2.29V13.91A2.3,2.3,0,0,0,2.29,16.2h4.3v-7A2.31,2.31,0,0,1,8.89,6.88Z" style="fill:#fff"/></g></g></svg>