<svg xmlns="http://www.w3.org/2000/svg" viewBox="0 0 30 24"><g id="Capa_2" data-name="Capa 2"><g id="Capa_1-2" data-name="Capa 1"><path id="Icon_material-fiber-new" data-name="Icon material-fiber-new" d="M27,0H3A3,3,0,0,0,0,3,0,0,0,0,0,0,3L0,21a3,3,0,0,0,3,3H27a3,3,0,0,0,3-3V3a3,3,0,0,0-3-3ZM9.75,16.5H8L4.13,11.25V16.5H2.25v-9H4.13l3.75,5.25V7.5H9.75Zm7.5-7.11H13.5v1.68h3.75V13H13.5v1.67h3.75V16.5h-6v-9h6ZM27.75,15a1.5,1.5,0,0,1-1.5,1.5h-6a1.5,1.5,0,0,1-1.5-1.5V7.5h1.88v6.77h1.69V9H24.2v5.26h1.68V7.5h1.87Z" style="fill:#fff"/></g></g></svg>