<?xml version="1.0" encoding="utf-8"?>
<!-- Generator: Adobe Illustrator 16.0.0, SVG Export Plug-In . SVG Version: 6.00 Build 0)  -->
<!DOCTYPE svg PUBLIC "-//W3C//DTD SVG 1.1//EN" "http://www.w3.org/Graphics/SVG/1.1/DTD/svg11.dtd">
<svg version="1.1" id="Capa_1" xmlns="http://www.w3.org/2000/svg" xmlns:xlink="http://www.w3.org/1999/xlink" x="0px" y="0px"
	 width="564px" height="378px" viewBox="16.14 230.445 564 378" enable-background="new 16.14 230.445 564 378"
	 xml:space="preserve">
<g>
	<g>
		<g>
			<g>
				<path fill="#C1C1C1" d="M305.082,500.006h195.326c17.672,0,32.555-12.091,37.205-28.834l35.344-146.029
					c1.861-8.371-2.789-17.673-12.092-19.533c-8.371-1.859-17.672,2.791-19.531,12.092l-35.346,146.03
					c-0.93,1.86-3.721,3.721-5.58,3.721H317.173l-63.249-197.188c-4.651-15.812-19.533-26.974-36.275-26.974h-37.205
					c-9.301,0-15.812,7.441-15.812,15.813s7.441,15.813,15.812,15.813h37.205c2.791,0,4.65,1.86,5.581,3.72l60.458,191.606
					c-7.441,2.79-13.952,6.511-19.533,12.092c-11.162,10.231-16.742,23.253-16.742,36.274c0,12.092,4.65,24.184,12.091,33.484
					c8.371,11.162,21.393,17.673,35.345,18.603c6.511,15.813,21.392,26.974,39.996,26.974c17.672,0,33.484-11.161,39.996-26.043
					h61.387c6.512,15.813,21.395,26.043,39.996,26.043c17.672,0,33.484-11.161,39.996-26.043h30.693
					c9.301,0,15.813-7.441,15.813-15.813c0-9.301-7.441-15.812-15.813-15.812H516.22c-6.512-15.813-21.393-26.974-39.996-26.974
					c-17.672,0-33.484,11.161-39.996,26.974h-61.387c-6.512-15.813-21.395-26.974-39.996-26.974
					c-17.672,0-32.555,11.161-39.065,26.043c-3.72-0.93-7.441-2.79-10.231-5.581c-3.72-4.65-4.65-10.23-4.65-13.951
					C279.968,511.168,289.269,500.006,305.082,500.006z M474.365,534.421c5.58,0,10.23,1.86,13.951,4.65
					c4.65,3.721,7.441,9.302,7.441,15.813s-2.791,12.092-7.441,15.812c-3.721,2.791-8.371,4.651-13.951,4.651
					c-5.582,0-10.232-1.86-13.953-4.651c-4.65-3.72-7.441-9.301-7.441-15.812s2.791-12.092,7.441-15.813
					C464.132,536.281,468.783,534.421,474.365,534.421z M333.916,534.421c5.58,0,10.23,1.86,13.951,4.65
					c4.65,3.721,7.441,9.302,7.441,15.813s-2.791,12.092-7.441,15.812c-3.721,2.791-8.371,4.651-13.951,4.651
					c-5.582,0-10.232-1.86-13.953-4.651c-4.65-3.72-7.439-9.301-7.439-15.812s2.789-12.092,7.439-15.813
					C324.615,536.281,329.265,534.421,333.916,534.421z"/>
			</g>
		</g>
	</g>
	<g>
		<g>
			<path fill="#C1C1C1" d="M140.449,351.185H36.275c-7.441,0-13.952-6.511-13.952-13.951c0-7.441,6.511-13.952,13.952-13.952
				h104.174c7.441,0,13.952,6.511,13.952,13.952C154.401,344.675,147.89,351.185,140.449,351.185z"/>
		</g>
	</g>
	<g>
		<g>
			<path fill="#C1C1C1" d="M172.073,408.853H67.899c-7.441,0-13.952-6.511-13.952-13.952c0-7.44,6.511-13.951,13.952-13.951h104.174
				c7.441,0,13.952,6.511,13.952,13.951C186.025,402.343,179.514,408.853,172.073,408.853z"/>
		</g>
	</g>
	<g>
		<g>
			<path fill="#C1C1C1" d="M201.837,466.521H97.663c-7.441,0-13.952-6.511-13.952-13.952c0-7.44,6.511-13.951,13.952-13.951h104.174
				c7.441,0,13.952,6.511,13.952,13.951C215.789,460.01,209.278,466.521,201.837,466.521z"/>
		</g>
	</g>
</g>
</svg>
