<?xml version="1.0" encoding="utf-8"?>
<!-- Generator: Adobe Illustrator 26.1.0, SVG Export Plug-In . SVG Version: 6.00 Build 0)  -->
<svg version="1.1" id="Capa_1" xmlns="http://www.w3.org/2000/svg" xmlns:xlink="http://www.w3.org/1999/xlink" x="0px" y="0px"
	 viewBox="0 0 448 512" style="enable-background:new 0 0 448 512;" xml:space="preserve">
<style type="text/css">
	.st0{fill:#FFFFFF;}
</style>
<path class="st0" d="M447.5,175.1c-0.1-12.3-0.1-24.5-0.1-36.8c0-5-0.2-10.1-0.8-15.1c-1.3-11.9-4.1-23.4-9.1-34.4
	c-5.5-12-13.1-22.3-22.9-31c-11.7-10.4-25.2-17.3-40.3-21.1c-10.1-2.6-20.5-3.7-30.9-3.9c-5.4-0.2-10.9-0.1-16.3-0.1
	c-0.9,0-1.8,0.1-2.6-0.3c-67,0-134.1,0-201.1,0c-0.9,0.4-1.9,0.3-2.8,0.3c-7.8,0.2-15.7-0.2-23.5,0.4c-6.5,0.6-13,1.4-19.4,2.8
	c-20.5,4.5-38,14.2-52,30.1C17.2,75.4,11.1,86.1,7,97.9c-4.3,12.6-6,25.6-6.3,38.8c-0.3,11.8-0.4,23.7-0.4,35.5
	C0.3,226.6,0,281,0.5,335.5c0.1,11.5,0.1,23,0.1,34.5c0,8.7,0.7,17.4,2,26c1.7,10.9,5,21.4,10.1,31.2c6,11.6,14.1,21.5,24.3,29.7
	c8.6,6.9,18.2,12.2,28.6,15.8c12.4,4.3,25.3,5.7,38.3,6.4c8.7,0.4,17.4,0.3,26.1,0.4c66.1,0.2,132.3,0.1,198.4,0.1
	c8.8,0,17.6-0.3,26.3-1.1c9.5-0.9,18.9-2.6,27.9-5.7c20-7,35.9-19.4,47.7-37c11.2-16.8,16.1-35.6,16.7-55.4
	c0.6-19.3,0.4-38.5,0.4-57.8C447.7,273.4,448,224.3,447.5,175.1z M388.7,288.7c0,7.2,0,14.4-0.3,21.6c-0.4,8.8-0.5,17.6-1.6,26.3
	c-1.7,14.2-5.5,27.8-12.8,40.2c-2.8,4.8-6.2,9.3-10,13.4c-5.1,5.5-10.6,10.4-16.9,14.4c-7.5,4.8-15.7,8.2-24.2,10.6
	c-8.1,2.3-16.3,3.6-24.7,4.2c-5.6,0.4-11.3,0.5-16.9,0.9c-8.2,0.5-16.5,0.2-24.7,0.4c-21.6,0.6-43.2,0.3-64.8,0.2
	c-7.6,0-15.1-0.1-22.7-0.4c-5.8-0.2-11.6-0.4-17.3-0.8c-11-0.8-21.8-2.5-32.2-6.1c-10.6-3.7-20.2-9-28.7-16.5
	c-11.2-9.9-19.3-21.9-24.2-36c-3.3-9.5-5.2-19.3-6-29.3c-0.4-5.2-0.6-10.5-0.9-15.7c-0.3-6.1-0.3-12.1-0.4-18.2
	c-0.6-26.6-0.3-53.1-0.2-79.7c0-6,0.1-12,0.4-18c0.4-8.5,0.6-17,1.6-25.5c1.5-12.1,4.6-23.7,10-34.6c4.8-9.6,11.3-17.7,19.3-24.9
	c12.7-11.4,27.8-17.6,44.4-20.8c6.4-1.2,12.9-1.8,19.5-2.2c8.6-0.4,17.3-0.6,25.9-0.9c14.5-0.5,29,0,39.3-0.2
	c14.7,0,25.2-0.1,35.7,0c8.3,0.1,16.6,0.1,24.9,0.5c8.3,0.3,16.6,0.5,24.9,1.6c16.1,2,31.3,6.6,44.7,16c12.9,9.1,22.7,20.8,29,35.4
	c4.4,10.3,6.9,21,8.1,32.2c0.7,6.7,0.9,13.4,1.3,20.2c0.4,7.4,0.2,14.7,0.4,22.1C389.1,242.4,388.8,265.6,388.7,288.7z M358.4,188.2
	c-0.4-6.6-1.1-13.2-2.6-19.6c-1.6-6.7-3.9-13.2-7.6-19.1c-7.9-12.5-19.1-20.5-33.3-24.3c-8.1-2.2-16.4-3.2-24.8-3.6
	c-9.6-0.4-19.2-0.7-28.8-0.8c-10.8-0.1-21.7-0.1-32.5-0.1c-18,0.1-36-0.3-53.9,0.3c-7.1,0.2-14.3,0.4-21.4,0.9
	c-8.6,0.6-17,2-25.2,4.8c-11.6,4.1-20.7,11.3-27.6,21.4c-6,8.9-8.7,19-10.1,29.5c-1,7.5-1.1,15.1-1.5,22.6
	c-0.3,5.6-0.4,11.3-0.4,16.9c-0.1,27.4-0.4,54.8,0.2,82.1c0.2,8.4,0.4,16.9,0.8,25.3c0.3,5.7,0.9,11.4,2.1,17
	c2.4,10.9,6.4,20.9,14.2,29.2c5.6,5.9,11.9,10.5,19.4,13.6c8,3.3,16.4,5,25,5.7c10.6,0.9,21.2,1.2,31.8,1.3c14.1,0.1,28.2,0,42.3,0
	c18.2-0.2,36.4,0.4,54.5-0.3c5.8-0.2,11.6-0.4,17.3-0.8c8.1-0.6,16.1-2,23.7-4.8c14.1-5.2,24.5-14.5,31-28c4-8.2,5.8-17.1,6.8-26.2
	c0.7-6.6,0.8-13.3,1.1-20c0.3-6.5,0.4-12.9,0.4-19.4c0.1-25.3,0.4-50.5-0.2-75.8C359,206.7,358.9,197.4,358.4,188.2z M223.8,340.6
	c-46.8-0.1-84.7-38.6-84.2-84.5c-0.5-44.9,36.1-84.7,84.5-84.6c48.8,0.1,84.5,40,84.4,84.6C308.4,302.4,270.5,340.8,223.8,340.6z
	 M312,187.7c-10.9,0-19.6-8.8-19.5-19.7c0-10.9,8.7-19.5,19.7-19.5c10.9,0,19.5,8.8,19.5,19.7C331.6,179,322.8,187.7,312,187.7z
	 M223.9,200.9c-32.5,0.1-55.5,27-55,55.2c-0.5,29.5,24.3,55.1,55.1,55.1c30.1,0,55.2-24.9,55.2-55.1
	C279.2,227.3,256,200.9,223.9,200.9z"/>
</svg>
