<?xml version="1.0" encoding="utf-8"?>
<!-- Generator: Adobe Illustrator 25.4.1, SVG Export Plug-In . SVG Version: 6.00 Build 0)  -->
<svg version="1.1" id="Capa_1" xmlns="http://www.w3.org/2000/svg" xmlns:xlink="http://www.w3.org/1999/xlink" x="0px" y="0px"
	 viewBox="0 0 368 94" style="enable-background:new 0 0 368 94;" xml:space="preserve">
<style type="text/css">
	.st0{fill:none;}
	.st1{fill:#FFFFFF;}
</style>
<g id="ULTIMA_x5F_LOGOS">
	<line class="st0" x1="40" y1="18.9" x2="43.1" y2="17.7"/>
	<line class="st0" x1="57.6" y1="18.9" x2="54.5" y2="17.7"/>
	<g>
		<g>
			<g>
				<g>
					<g>
						<g>
							<path class="st1" d="M166.4,61.2V0H177v61.2H166.4z"/>
						</g>
						<g>
							<path class="st1" d="M214,61.2V18.1h10.6v43.1H214z"/>
						</g>
						<g>
							<path class="st1" d="M286.4,61.2V35.8c0-2.6-0.1-4.5-0.5-6c-0.3-1.4-0.8-2.4-1.4-2.9s-1.6-0.8-3.1-0.8
								c-1.6,0-3.3,0.6-5.1,1.8c-1.8,1.2-3.5,2.7-5.1,4.4l0,0v28.8h-10.6V35.8c0-2.8-0.1-4.8-0.4-6.1c-0.2-1.2-0.7-2.2-1.3-2.7
								s-1.7-0.8-3.2-0.8c-1.3,0-2.8,0.5-4.6,1.5c-1.7,1-3.6,2.6-5.6,4.8l0,0v28.8H235V18.1h10.6v5.1c0,0.2,0.2,0.3,0.4,0.1
								c1.9-1.9,3.8-3.5,5.8-4.6c2.2-1.2,4.6-1.8,7.2-1.8c3.6,0,6.2,0.6,8,1.8c1.7,1.2,2.9,3.1,3.5,5.5c2.5-2.5,4.8-4.3,6.9-5.5
								s4.7-1.8,7.5-1.8c4.2,0,7.2,1.2,9.2,3.6s2.9,6.4,2.9,12v28.8L286.4,61.2L286.4,61.2z"/>
						</g>
						<g>
							<path class="st1" d="M332.3,57.2c0-0.2-0.2-0.3-0.4-0.2c-4.1,3.6-8.5,5.4-13.1,5.4c-4.8,0-8.4-1.2-10.8-3.8
								c-2.4-2.5-3.7-5.7-3.7-9.6c0-3.1,0.6-5.6,1.9-7.6s3.1-3.6,5.5-4.7c2.5-1.1,6-1.9,10.6-2.4l9.1-0.9v-1.9
								c0-2.4-0.7-4.1-2.2-4.9c-1.5-0.9-3.6-1.3-6.4-1.3c-2.3,0-4.3,0.4-5.9,1.2c-1.7,0.8-2.9,1.9-3.7,3.3l-8.2-5.3c0,0,0,0,0,0
								c1.5-2.4,3.7-4.3,6.8-5.6c3.1-1.3,6.8-2,11.2-2c6.7,0,11.6,1.2,14.5,3.5c3,2.3,4.5,6.2,4.5,11.5v29.3h-9.8L332.3,57.2
								L332.3,57.2z M331.5,41.2l-5.4,0.5c-3.8,0.3-6.6,1.1-8.2,2.2s-2.5,2.8-2.5,5.1c0,2,0.5,3.3,1.6,4.1c1.1,0.7,2.5,1.1,4.4,1.1
								c1.3,0,2.9-0.4,4.7-1.2s3.7-1.9,5.5-3.4l0,0L331.5,41.2z"/>
						</g>
					</g>
					<g>
						<g>
							<g>
								<g>
									<polygon class="st1" points="144,14.4 133.7,14.4 139.8,3.3 150.2,3.3 									"/>
								</g>
							</g>
						</g>
					</g>
					<g>
						<g>
							<g>
								<g>
									<path class="st1" d="M146.9,44.8c0,5.4-3.1,8.9-7.8,8.9c-4.9,0-8.1-3.5-8.1-8.9V18.2h-10.5v26.2c0,11,7.3,18.1,18.5,18.1
										c11.3,0,18.3-6.9,18.3-18.1V18.2h-10.4L146.9,44.8L146.9,44.8z"/>
								</g>
							</g>
						</g>
					</g>
					<g>
						<g>
							<g>
								<g>
									<g>
										<path class="st1" d="M356.8,26.6c-0.2-0.2-0.4-0.3-0.7-0.4c0.7-0.1,1.2-0.3,1.7-0.7c0.4-0.4,0.6-0.9,0.6-1.5
											c0-0.4-0.1-0.8-0.4-1.2s-0.6-0.6-1-0.8s-1.1-0.2-2-0.2h-2.8v8h1.3v-3.4h0.8c0.5,0,0.8,0.1,1,0.3c0.4,0.2,0.8,0.9,1.4,1.9
											l0.7,1.3h1.6l-1-1.6C357.5,27.5,357.1,26.9,356.8,26.6z M355.1,25.3h-1.6v-2.4h1.5c0.6,0,1.1,0.1,1.3,0.1
											c0.2,0.1,0.4,0.2,0.5,0.4c0.1,0.2,0.2,0.4,0.2,0.6c0,0.4-0.1,0.7-0.4,0.9C356.4,25.2,355.9,25.3,355.1,25.3z"/>
									</g>
								</g>
							</g>
						</g>
						<g>
							<g>
								<g>
									<g>
										<path class="st1" d="M361.2,20.8c-0.3-0.4-0.7-0.8-1.1-1c-1.5-1-3-1.6-4.6-1.6s-3.1,0.5-4.6,1.6c-0.4,0.3-0.8,0.6-1.1,1
											c-1.2,1.5-1.8,3.2-1.8,4.9c0,1.6,0.5,3.1,1.5,4.5c0.4,0.6,0.9,1.1,1.4,1.4c1.4,1,2.9,1.5,4.5,1.5s3.1-0.5,4.6-1.5
											c0.6-0.4,1-0.9,1.4-1.5c1-1.4,1.5-2.9,1.5-4.5C363,23.9,362.4,22.3,361.2,20.8z M360.5,29.5c-0.3,0.4-0.7,0.8-1.1,1.1
											c-1.2,0.9-2.5,1.3-3.9,1.3c-1.1,0-2.1-0.3-3.1-0.8c-1-0.5-1.8-1.3-2.3-2.3c-0.5-1-0.8-2-0.8-3.1c0-1.1,0.3-2.1,0.8-3.1
											c0.6-1,1.3-1.8,2.3-2.3c1-0.5,2-0.8,3-0.8c1,0,2.1,0.3,3,0.8c1,0.5,1.8,1.3,2.3,2.3c0.6,1,0.8,2,0.8,3.1
											C361.7,27,361.3,28.3,360.5,29.5z"/>
									</g>
								</g>
							</g>
						</g>
					</g>
					<g>
						<path class="st1" d="M206.8,26.5v-8.4h-10v-12h-10.6v42.1c0,5.1,1.1,8.7,3.3,10.9c2.2,2.2,5.8,3.4,10.8,3.4
							c2.2,0,4.3-0.3,6.4-0.7v-8.5c0-0.3-0.2-0.4-0.5-0.4c-1.5,0.5-3.1,0.8-4.6,0.8c-1.5,0-2.7-0.5-3.6-1.4s-1.2-2.8-1.2-5.5V26.5
							H206.8z"/>
					</g>
					<g>
						<g>
							<g>
								<g>
									<rect x="214" y="1.8" class="st1" width="10.6" height="10.6"/>
								</g>
							</g>
						</g>
					</g>
				</g>
			</g>
			<g>
				<path class="st1" d="M124.8,72.7v13.2h-2.5V72.7H124.8z"/>
				<path class="st1" d="M149.2,72.7v13.2h-4.2l-3.8-7.2c-0.2-0.4-0.5-1-0.9-1.9l-0.4-0.9l-0.4-0.9h-0.1l0,0.9l0,0.9l0,1.7v7.6h-2.5
					V72.7h4.2l3.4,6.7c0.3,0.6,0.7,1.3,1.1,2.2l0.5,1.1l0.5,1.1h0.1l0-0.9l0-0.9l0-1.7v-7.6L149.2,72.7L149.2,72.7z"/>
				<path class="st1" d="M163.7,74.8v3.6h5.9v2.1h-5.9v5.4h-2.5V72.7h8.8v2.1L163.7,74.8L163.7,74.8z"/>
				<path class="st1" d="M186.7,72.6c2.4,0,4,0.4,4.6,1.2s1,2.6,1,5.4c0,3-0.4,4.9-1,5.7c-0.7,0.8-2.4,1.2-5,1.2
					c-2.4,0-4-0.4-4.7-1.2s-1.1-2.5-1.1-5.1c0-3.1,0.4-5.1,1-5.9C182.3,73,184,72.6,186.7,72.6z M186.5,74.7c-1.7,0-2.7,0.2-3,0.6
					s-0.4,1.9-0.4,4.5c0,1.9,0.2,3,0.5,3.4s1.3,0.6,2.9,0.6c1.6,0,2.5-0.2,2.8-0.6c0.3-0.4,0.5-1.8,0.5-4s-0.1-3.5-0.4-3.9
					C189.1,74.9,188.1,74.7,186.5,74.7z"/>
				<path class="st1" d="M203.8,85.9V72.7h6.5c1.6,0,2.7,0.3,3.4,0.8c0.6,0.6,0.9,1.6,0.9,3.1c0,1.3-0.1,2.2-0.5,2.7s-0.9,0.8-1.9,1
					v0.1c1.5,0.1,2.2,0.9,2.2,2.6v2.9h-2.5v-2.4c0-1.4-0.7-2-2-2h-3.6v4.4L203.8,85.9L203.8,85.9z M206.3,79.3h3.6
					c0.9,0,1.4-0.1,1.7-0.5c0.3-0.3,0.4-0.9,0.4-1.8c0-0.9-0.1-1.6-0.4-1.8c-0.2-0.3-0.8-0.4-1.6-0.4h-3.8L206.3,79.3L206.3,79.3z"
					/>
				<path class="st1" d="M241.7,72.7v13.2h-2.5v-7.2c0-0.6,0-1.2,0-2l0-1l0-1h-0.1l-0.3,0.9l-0.3,0.9c-0.3,0.8-0.5,1.4-0.6,1.8
					l-2.9,7.5h-2.3l-2.9-7.4c-0.2-0.4-0.4-1-0.6-1.8l-0.3-0.9l-0.3-0.9h-0.1l0,1l0,1c0,0.8,0.1,1.4,0.1,1.9v7.2h-2.5V72.7h4.1
					l2.4,6.1c0.2,0.4,0.4,1,0.6,1.8l0.3,0.9l0.3,0.9h0.1l0.3-0.9l0.3-0.9c0.2-0.8,0.5-1.4,0.6-1.8l2.3-6.1L241.7,72.7L241.7,72.7z"
					/>
				<path class="st1" d="M261.8,83.4h-5.7l-0.8,2.5h-2.6l4.4-13.2h3.8l4.5,13.2h-2.6L261.8,83.4z M261.2,81.5l-2.3-6.9l-2.2,6.9
					H261.2z"/>
				<path class="st1" d="M281.4,74.9v11h-2.5v-11H275v-2.2h10.3v2.2H281.4z"/>
				<path class="st1" d="M298.8,72.7v13.2h-2.5V72.7H298.8z"/>
				<path class="st1" d="M319,81.2h2.5v0.4c0,1.8-0.3,3-1,3.6c-0.7,0.5-2.2,0.8-4.5,0.8c-2.6,0-4.2-0.4-4.8-1.3s-0.9-3.1-0.9-6.8
					c0-2.2,0.4-3.6,1.2-4.3c0.8-0.7,2.5-1,5.1-1c1.9,0,3.1,0.3,3.8,0.9c0.6,0.6,1,1.7,1,3.4l0,0.3h-2.5v-0.3c0-0.9-0.2-1.4-0.5-1.7
					s-1.1-0.4-2.2-0.4c-1.6,0-2.5,0.2-2.8,0.6s-0.5,1.5-0.5,3.4c0,2.5,0.1,4,0.4,4.5s1.2,0.7,2.7,0.7c1.2,0,2-0.1,2.4-0.4
					c0.4-0.3,0.6-0.8,0.6-1.7L319,81.2z"/>
				<path class="st1" d="M340.8,83.4h-5.7l-0.8,2.5h-2.6l4.4-13.2h3.8l4.5,13.2h-2.6L340.8,83.4z M340.3,81.5l-2.3-6.9l-2.2,6.9
					H340.3z"/>
			</g>
		</g>
		<path class="st1" d="M95.5,8.3L89.3,2c-1.3-1.3-3.1-2-4.9-2H54.9c-0.2,0-0.4,0.2-0.4,0.4v17.3H43.1V0.4c0-0.2-0.2-0.4-0.4-0.4
			H13.2c-1.8,0-3.6,0.7-4.9,2L2,8.3c-1.3,1.3-2,3.1-2,4.9v29.2v31.1c0,1.8,0.7,3.6,2,4.9l6.2,6.2c1.3,1.3,3.1,2,4.9,2h35.6h35.6
			c1.8,0,3.6-0.7,4.9-2l6.2-6.2c1.3-1.3,2-3.1,2-4.9V42.4V13.2C97.6,11.3,96.8,9.6,95.5,8.3z M68.6,47.2c0,12-7.5,19.4-19.7,19.4
			C36.8,66.6,29,59,29,47.2V18.9H40v28.6c0,5.9,3.5,9.8,8.9,9.8c5.2,0,8.6-3.8,8.6-9.8V18.9h11L68.6,47.2L68.6,47.2z"/>
	</g>
</g>
</svg>
