<svg xmlns="http://www.w3.org/2000/svg" viewBox="0 0 23.45 27"><g id="Capa_2" data-name="Capa 2"><g id="Capa_1-2" data-name="Capa 1"><path id="Icon_metro-fire" data-name="Icon metro-fire" d="M6.6,27c-1.8-3.74-.84-5.89.54-7.91A12.47,12.47,0,0,0,9,14.68a5.16,5.16,0,0,1,.72,4,10,10,0,0,0,2.18-7.5C16.7,14.47,18.73,21.67,16,27c14.57-8.24,3.63-20.57,1.72-22,.64,1.39.76,3.74-.53,4.88C15,1.69,9.64,0,9.64,0c.64,4.25-2.3,8.89-5.13,12.36a9.2,9.2,0,0,0-1.1-4.48C3.21,11,.86,13.46.22,16.54-.63,20.72.87,23.77,6.6,27Z" style="fill:#fff"/></g></g></svg>