<svg id="Capa_1" data-name="Capa 1" xmlns="http://www.w3.org/2000/svg" viewBox="0 0 400 400"><defs><style>.cls-1{fill:#fff;}.cls-2{fill:#32cc32;}</style></defs><path class="cls-1" d="M300.27,304.18c-.93.41-1.42-.27-1.9-.65a5.3,5.3,0,0,0-5.8-.46,6.17,6.17,0,0,0-3.11,5.79c0,.53.26,1.08-.13,1.55-2.32,2.82-2.41,5.81-1.07,9.14.76,1.87-1.16,6.44-5,8.57s-7.77,2.24-11.77,2.74A26.34,26.34,0,0,0,266.1,332a38.18,38.18,0,0,1-9.18,1.86c-3.64.36-6.72,2.38-9.44,4.82-1.78,1.6-3.59,2.83-6.19,1.82-1.25-.48-2.42.35-3.44,1-2.09,1.25-4.24,2.47-5.62,4.62a1.81,1.81,0,0,1-1.51.93,4.07,4.07,0,0,0-3.08,1.28,2.06,2.06,0,0,1-1.69.59c-3.19-.24-5.7,1.43-8.18,3s-2.89,4-3.2,6.6a20.35,20.35,0,0,0-.08,2.07c-.09,4.87-2,6.51-6.9,6-2.27-.23-4.5-.58-6.81.12-2.61.79-4.48-.91-5.92-2.69a19.12,19.12,0,0,0-5.09-4.19,2.31,2.31,0,0,0-3.09.11,3.87,3.87,0,0,1-5.42-.07,8,8,0,0,0-4.76-2,6.35,6.35,0,0,1-3.87-1.72c-2.07-1.76-6.79-1.79-9.12-.29-1.28.83-1.31,1.94-.72,3.23a2.1,2.1,0,0,1-2.34-1.41c-.74-1.46-1.72-2.74-3.72-2.45-.49.08-1.48-.24-1-.71,1.46-1.43,0-2.26-.51-3.14a22.25,22.25,0,0,1-1.76-3.68c-.48-1.48-1.79-2.42-3.42-1.49s-2.16.33-2.9-1.16c-1.22-2.48-3.88-3.68-5.69-5.67-3.75.75-5.86-2.49-6.84-4.55-1.34-2.8-2.93-3.59-5.51-4.18-1.1-.25-2-1.47-2.8-2.54-1.63-2.13-4-3.53-5.43-6-.63-1.14-2.44-1.79-3.89-1.7-3.65.22-5.2-2.48-7-4.77a11.86,11.86,0,0,0-3-2.94c-2.58-1.68-4.85-4-4.84-7.38,0-1.86-1.41-2.7-2.24-3.82-1.53-2.06-1.78-4.55-2.87-6.74-1.44-2.87-2.53-5.89-4.57-8.44A9.14,9.14,0,0,1,91,282.92a17.07,17.07,0,0,0-3.4-7c-2.1-2.41-3.42-5.34-5.68-7.73-1.77-1.88-2-5-.87-7.62a17.75,17.75,0,0,0,1.52-7.31,11.78,11.78,0,0,1,.7-3.58,8.18,8.18,0,0,0-.38-5.76,29.09,29.09,0,0,1-2.25-11.23,3.57,3.57,0,0,1,.77-2.36c2.05-2,2.6-4.8,4.26-7a6.42,6.42,0,0,0,1.11-3.22,18.53,18.53,0,0,1,1.59-5.65c.78-1.74-.36-3.28-1.22-4.67-.69-1.1-.49-1.64.58-2.12,2.14-.94,4-1.81,6.72-1s5.7-.62,8.28-2a32.89,32.89,0,0,0,9.68-8.29c1.08-1.31,1.16-2.78,1.54-4.23s.78-2.61,2.94-2.17c2,.4,3.84-.78,5.54-1.79a19.29,19.29,0,0,1,2.58-1.47c2.21-.89,4.37-1.79,4.94-4.54.39-1.86,2-2.55,3.47-3.51,5.22-3.31,8.35-8.35,10.58-14,.47-1.19.05-2.44-.18-3.63a2,2,0,0,0-2.35-1.93c-.66,0,.13-3.25,1.17-4,.78-.53,1.95-.48,2.22-1.75.32-1.56.4-4.22,0-4.49-2.09-1.58-1.23-2.85,0-4.08s.55-3.12,2.57-4.07.51-3.4-.16-4.42c-1.27-1.94-.41-3,.7-4.16,1.95-2.06,1.92-2.79-.66-4.24-1.65-.92-3.12-1.91-3.74-3.82-.24-.73-.74-1.5-.06-2.13a2,2,0,0,1,2.17-.09A5,5,0,0,0,152,120.9a5.16,5.16,0,0,1,2.8-1.66c2-.53,2.72,0,2.87,2s.8,3.19,3,2.9a2.13,2.13,0,0,1,1,.39c1.9,1,3.58,1.16,5.48-.37a8.88,8.88,0,0,1,6.29-2.33c1.54.12,2.76-.69,4-1.54.81-.56,1-2.06,2.15-1.84a7.31,7.31,0,0,1,3.23,1.52c1.47,1.27,3,2.51,3.52,4.63.71,3.1,3.89,4.37,5.36,7a1.07,1.07,0,0,0,1.49.13,2.06,2.06,0,0,1,2.91.33c2.12,2.29,4.46,1.21,6.71.53a3.25,3.25,0,0,1,3,.23,6.38,6.38,0,0,0,5.08.88,70.15,70.15,0,0,1,13.4-1.19,4.14,4.14,0,0,0,3.09-1.22c1.68-1.68,4.19-1.78,6.11-3.22,1.23-.93,2.95.3,4,1.39,1.45,1.44,2.59,3.38,5.13,2.17a.25.25,0,0,1,.22,0c3.9,2.54,9.31,2,12.41,6.17.39.52.78,1.06,1.49.84,3.13-1,4.51,1.41,5.85,3.34,1.17,1.68,2.25,2.37,4.16,1.42a4.25,4.25,0,0,1,1.57-.27c5.31-.45,9.09-3.11,12.4-7.28,2.19-2.76,1.55-5.34,1.31-8.08-.12-1.5-1.64-2.33-2.76-3.22-2.14-1.7-2-4.47.61-5.25,3-.89,4.51-3.43,6.75-5.15.94-.73,1.6-1.05,2.6-.56a8.88,8.88,0,0,0,4.44.86,3.2,3.2,0,0,1,3,4.26c-.48,1.36-.51,2.36,1.15,2.85.85.25,1.92.56,1.66,1.81s-1.18.66-1.89.64c-1.31,0-1.15,1-1.21,1.78-.09,1.22-.09,2.45-.28,3.65a16.68,16.68,0,0,1-1,2.7c-.09-1.81-.15-3-.22-4.46-1.24,1.2-1.55,2.77-2.64,3.78-.56.52,0,1.1.29,1.64.6,1,1.31,2-.55,2.64-1.16.41-.2,1.14.21,1.53,1.3,1.27,1,2.79.8,4.31-.16,1.07-.93,1.28-1.87,1.24s-1.29-.67-1.28-1.54c0-2.22.06-4.44.06-6.67,0-.58.18-1.39-.54-1.61s-.62.59-.88,1c-.52.85-.43-.15-.48-.25-.52-1.07-1.52-.72-2.23-.59-1.16.21-.43,1.08-.28,1.65.21.8-.36,1.29-.61,1.91-.17.41-.4,1.05.27,1.08,2.27.1,1,1.17.47,1.81-1.8,2-1,3.81.34,5.57,2.54,3.34,5.3,6.49,6.49,10.71,1,3.59,1,6.92-1,10.12a3.7,3.7,0,0,0-.47,3.31c1.49,3.69-.36,6.93-1.34,10.19-.66,2.21-.31,3.85,1.24,5.14a2.35,2.35,0,0,1,.66,3.39c-.59,1-.48,2.17.44,2.28,1.9.23,2.25,1.75,3.11,2.87a20.89,20.89,0,0,0,8.32,6,4.24,4.24,0,0,1,2.75,4.41c-.21,3.6,2.6,4.87,4.49,6.8.64.67,1.27.72.6,1.82s1.15,2.08.59,3.43.24,1.9,1.57,2.58c2.54,1.32,2.26,3.26-.38,4.52a4,4,0,0,0-2.27,4.73c.36,1.36-.23,1.94-1.49,2.3-2.19.63-1.5,2.78-2,4.26-.33,1,.23,1.84,1.46,2.16,1,.26.89,1.06.41,1.84-.69,1.13-1,2.2.32,3.19.73.54.6,1.23.1,2-1.13,1.78-.8,2.62,1.2,3.37.93.35,1.87.67,2.81,1,.36.12.95.24.88.59-.55,2.5,1.42,2.57,2.9,3.17a3.22,3.22,0,0,1,1.81,1.7c.36.9.85,1.92,0,2.79s-1.57.12-2.3-.26c-1.35-.69-2.9-1-4-2.22a1.08,1.08,0,0,0-1.65,0c-2.05,2.14-4.28,3.76-4.79,7.38s.06,7.31-.88,10.87a15.18,15.18,0,0,1-2.16,5,5.73,5.73,0,0,0,1,7.85,10.68,10.68,0,0,0,2.15,1.68c2.27,1.07,1.5,2.33.15,3.33a1.66,1.66,0,0,0-.64,2.18c1,1.56.6,2.8,0,4.39-.78,2.1-2,2.68-4,2.23-1.56-.35-4.19,1.71-4.24,3.29,0,.69.55.85,1,1.12C299.41,303,300.17,303.27,300.27,304.18Z"/><path class="cls-2" d="M272.67,33.13c-22.54.62-41.31,20-41.25,42.56a42.28,42.28,0,0,0,10.21,27.49,215,215,0,0,1,25.1,36.7l4.13,7.54a3.44,3.44,0,0,0,6,0l4.83-8.81a224.71,224.71,0,0,1,24.75-35.84,42.26,42.26,0,0,0,9.86-27.21h0A42.45,42.45,0,0,0,272.67,33.13Zm1.82,61.16A18.74,18.74,0,1,1,292.6,76.18,18.74,18.74,0,0,1,274.49,94.29Z"/></svg>