<svg id="Capa_1" data-name="Capa 1" xmlns="http://www.w3.org/2000/svg" viewBox="0 0 400 400"><defs><style>.cls-1{fill:#fff;}.cls-2{fill:#32cc32;}</style></defs><path class="cls-1" d="M114.16,355.31c-1.57-2.33-3.93-2.89-6.4-3.51-2.29-.58-2.74-1.72-1.54-3.78a9.8,9.8,0,0,0,1-5.35,2.25,2.25,0,0,0-.4-1.66,3.56,3.56,0,0,1-1-4c.38-1-.63-1.92-1.41-2.59-2.29-1.93-4.58-3.88-7-5.67-1.33-1-1.48-2.52-2.17-3.79-.38-.69-.66-1.25-1.47-1.29-2-.09-2.85-1.61-4.09-2.81-1.83-1.76-2.63-4.19-4.31-6a4.64,4.64,0,0,1-.92-1.69,10.06,10.06,0,0,0-2.74-4.29c-1.29-1.3-2-3.27-2.69-5a9,9,0,0,0-1.2-2.37A11.5,11.5,0,0,1,75.55,294c0-1.81-1.57-4.16-3.32-4.43s-2.45-1.5-3.21-2.95c-1.61-3.08-2.68-6.45-5.2-9A6.57,6.57,0,0,1,62,271.71a2.59,2.59,0,0,0-.37-2,3,3,0,0,1-.59-2.38c.06-.24.09-.68,0-.73-2.78-1.47-.3-5-2.63-6.66-.27-.2-.21-.81.08-1.08a2.94,2.94,0,0,0,.73-3,1.06,1.06,0,0,1,.57-1.12c2.44-1.56,2.11-6.45-.52-7.93-1.35-.75-3.46-.77-2.94-3.28.09-.43-.67-.47-1.1-.59a5.48,5.48,0,0,1-4.15-6.37c.08-.61.18-1.2-.41-1.56a7.94,7.94,0,0,1-2.89-3.8,2.83,2.83,0,0,0-1.68-1.44c-2.6-1.06-3.62-2.75-3.18-5.43a2.24,2.24,0,0,0-1.39-2.49c-2.36-1.37-4.5-3-5.07-5.78-.5-2.45-2.75-3.34-3.84-5.2-.15-.25-.51-.6-.73-.57-1.78.27-3-1.1-4.47-1.57-3.51-1.12-4.32-5.25-1.69-8,2.88-3,6.3-3.86,10.31-3.28a5,5,0,0,0,4.73-1.62c1-1.16,2.8-.6,4.14-1.44,3.4-2.14,7.07-3.79,9.89-6.84,1.07-1.15,2.33-2.45,4.45-2.31,1.13.07,2.16-1.28,3.42-1.75,3-1.11,3.46-1,5.24,1.55a11.63,11.63,0,0,0,2.44,2.18,18.7,18.7,0,0,1,2.57,2.31c.79.91,1.82.79,3,.86,1.66.08,3.9-.62,5.33,1a1.64,1.64,0,0,0,2,.48c2.49-.68,5,.28,7.43.39a5.21,5.21,0,0,0,2.07-.13c2.4-.83,4.79-1,6.89.8a.89.89,0,0,0,1.35,0c.59-.5,1.41-.94,1.66-1.59.81-2.11,3.06-1.9,4.48-3,.57-.43,1.08.09,1.33.7a2.36,2.36,0,0,0,1.3,1.6c.64.23,1.26.52,1.14-.71-.2-1.93,1.61-2.73,2.53-4,.41-.55,1.06.07,1.55.34a8.92,8.92,0,0,0,4.83,1.17,4.65,4.65,0,0,0,4.41-4.08c.11-.87.17-1.55,1.4-.9a21.17,21.17,0,0,0,3.29,1.1c1.8.59,2.89-.26,3.08-2.14.13-1.29.26-2.36,2.37-2.35,1.69,0,3.49,1,5.21-.09.54-.35,1.13.15,1.45.67,1.07,1.73,2.61,1.76,4.23,1.08a2.64,2.64,0,0,1,3.33.57,1.89,1.89,0,0,0,2.13.49,12,12,0,0,1,7.06,0A17.73,17.73,0,0,0,164,182c1-.08,1.54-.86,2-1.64s1.11-1.47,2-.76c1.94,1.5,3.44.29,4.88-.74,1.25-.9,2.25-2.21,4.05-1.86a.6.6,0,0,0,.5-.23c1.46-2.86,4.88-3,6.93-5.06,1.6-1.6,4-1.18,5.88-2.3.54-.33,1,.15,1.2.66a1.85,1.85,0,0,0,2.46,1c3-.93,6.16-.57,9.16-1.38a4.42,4.42,0,0,0,2.63-1.49c1.63-2.19,3.93-3.86,4.54-6.85.38-1.88,2.23-1.85,3.84-1.55,3.58.68,7.44-1.93,7.84-5.49.19-1.74,1.42-2.86,2.11-4.3.32-.66,1-.13,1.56.06,2,.72,3.3-.22,2.85-2.31-.4-1.83.06-3,1.64-3.84,1.32-.68.11-1.74.4-2.52.61-.33.87.2,1.24.38,1.07.54,1.87.6,1.93-.95A1.77,1.77,0,0,1,235,139c4.14-1.43,6-4.59,6.54-8.73a12.63,12.63,0,0,1,1.09-3.64c.67-1.44,1.4-2.93,1.07-4.64a1.57,1.57,0,0,1,.64-1.54c3-2.47,5.74-5.3,8.63-7.91,2-1.76,3.73-3.78,6-5.25a6.76,6.76,0,0,1,5.3-1.12,10.37,10.37,0,0,0,8.92-2.31,12.3,12.3,0,0,1,5.36-2.42c3.06-.52,4.12-2.1,3.53-5.22-.54-2.84,2.83-6.3,5.69-5.89,1.13.16,1.35,1,1.71,1.86,1,2.31,1,2.34,3.14,1.21a1.45,1.45,0,0,1,1.88.21c2.07,1.69,4.48,1,6.78.74.6-.05.91-.69,1.05-1.29.35-1.59,1.18-1.44,2.2-.62.3.25.58.52.89.76.5.37,1,1,1.68.61s1.31-.92,1.15-1.85c-.22-1.24.58-1.08,1.08-.63,1.59,1.4,3.74,1.74,5.41,2.94a2.67,2.67,0,0,0,2.38.34,9.37,9.37,0,0,1,7.26.89,8.94,8.94,0,0,0,8,.7c2.69-1,5.63-1.34,8.4-2.15a28.08,28.08,0,0,0,8.07-4c1.54-1,2.88-3.06,5.3-2.38.23.06.59-.21.85-.4,2.6-1.83,5.29-1.54,8.06-.44,1.19.48,2.43.85,3.66,1.25,1.57.52,3.83.43,2.59,3.24-.23.53.08,1,.79,1.32,2,.83,3.26,2.24,3,4.62-.12,1.09.62,1.78,1.35,2.45,1.87,1.7,1.87,4-.16,5.34a4.17,4.17,0,0,0-1.85,3.42c-.17,2.28-.93,4.09-3.34,4.92a2.48,2.48,0,0,0-1.84,2.47c0,1.28-1.35,1.78-1.81,2.88-.64,1.52-1.9.34-2.87.22a3.53,3.53,0,0,0-2.28.15c-2.43,1.48-5.3,2-7.68,3.58a5.4,5.4,0,0,0-1.69,1.57,2.19,2.19,0,0,1-2.54,1.25,2.29,2.29,0,0,0-2,1,9.49,9.49,0,0,0-.78,1.1c-1.68,2.46-3.21,4.81-6.87,4.69a7.55,7.55,0,0,0-5.9,2.94c-.12.14-.31.39-.43.37-2.16-.39-3.83.88-5.69,1.57a4.65,4.65,0,0,0-2.27,1.29c-1.07,1.38-2,2.83-3,4.28-.17.25-.37.66-.28.89.89,2.27-.81,4.08-1.06,6.14s-2.22,3.25-3.45,4.76c-.53.66-2.24.11-3.43.7a11.48,11.48,0,0,0-5,4.35,9.8,9.8,0,0,1-2.63,3.08c-3.12,2.19-5.34,5.12-7.54,8.15a22,22,0,0,1-5.76,5.06c-1.33.9-2.81,1.53-3.6,3.12-.54,1.07-1.67.85-2.59.43-1.83-.84-2.91,0-4.4,1.15-2.93,2.32-4.79,5.7-8.23,7.55a5.39,5.39,0,0,0-3.15,5.69c.25,1.71-.71,3.36-1.5,4.71-2.28,3.9-1.8,7.68-.18,11.5a14.21,14.21,0,0,1,1.28,5.23,4.37,4.37,0,0,0,.3,1.89c1.09,2.11.76,4.22.37,6.43a9.36,9.36,0,0,1-3.45,6.16c-2.4,1.94-4.18,4.65-6.2,7.06-.54.65-.34,1.5-.3,2.26.22,4.19-1.49,7.57-3.64,11.11-2.53,4.16-5.21,8.35-6.76,13a27.51,27.51,0,0,1-3.26,6.75c-1.4,2.08-2.52,4.34-3.8,6.5a1.75,1.75,0,0,0,.23,2.13,2.87,2.87,0,0,1-.39,4,3.46,3.46,0,0,0-1.3,2.92c.36,2-.39,3.64-.95,5.38-.46,1.44-.52,2.76.81,3.88.82.68.57,1.55-.36,1.78-1.54.37-1.93,1.55-2.39,2.76s-.15,1.94,1.17,2.32c2.55.72,2.81,1.58,1.16,3.63-1.13,1.42-2,3.17-4.45,2.65-1-.22-1.54,1-1.67,2s-.53,1.89-1.86,1.62c-.91-.19-1.18.41-1.2,1.11,0,1.58-1,2.42-2.22,3.16-.88.53-1.66,1.21-2.52,1.78-1.06.7-1.71,1.44-1.24,2.88a1.83,1.83,0,0,1-1.27,2.3c-1.52.66-2.33,2-3.34,3.23-1.72,2.16-3.26,4.61-5.66,6.17a2.8,2.8,0,0,0-1.59,2.8c.12,2.34-1.38,4.06-4,4.56a3.31,3.31,0,0,0-3,3.06c-.24,1.55-1.26,2.36-2.32,3.37-1.75,1.66-4.34,2.57-4.9,5.4a2.69,2.69,0,0,1-2.54,1.83,2.06,2.06,0,0,0-2,2c-.14,1.05-.72,1.49-1.84,1.54-2.06.08-2.79,1.59-1.82,3.5s-.61,5-2.65,5.23a2.09,2.09,0,0,1-2-1c-1.7-2.12-2.18-2.23-4.77-1.29-.48.17-1.07.48-1.48.34-3.74-1.32-7.24.78-10.82.66-3.74-.12-6.27,1.86-9,3.75-1.15.79-2.54.59-3.76.66-2.56.15-3.55,2-4.82,3.67,0,0,0,.15-.06.18-1.89,1.38-3.67,3-6,3.67-.05,0-.15,0-.18,0-1.95-2.05-4.77-.32-6.9-1.59-.39-.24-1.14-.46-1.26-.17-.76,1.76-3,1.16-3.78,2.2-2.54,3.4-5.7,2.38-8.8,1.62a11.11,11.11,0,0,1-4.63-2.76c-1.7-1.55-2.72-3.4-1.87-5.89.51-1.51.18-3.22.8-4.76.25-.63-.31-1.06-.66-1.52a5.8,5.8,0,0,1-1.27-4.3c.16-1.73-.94-3.23-1.71-4.74a1.13,1.13,0,0,0-1.46-.63C114,353.82,114.87,354.44,114.16,355.31Z"/><path class="cls-2" d="M307.58,21.16c-25.19.7-46.16,22.36-46.09,47.56A47.32,47.32,0,0,0,272.9,99.44a241.1,241.1,0,0,1,28,41l4.62,8.43a3.84,3.84,0,0,0,6.73,0l5.4-9.84a251.16,251.16,0,0,1,27.65-40,47.23,47.23,0,0,0,11-30.4h0A47.44,47.44,0,0,0,307.58,21.16Zm2,68.35a20.94,20.94,0,1,1,20.24-20.25A20.94,20.94,0,0,1,309.61,89.51Z"/><path class="cls-2" d="M117.9,208.57c-25.19.69-46.17,22.35-46.09,47.55a47.19,47.19,0,0,0,11.41,30.72,241.18,241.18,0,0,1,28,41l4.62,8.42a3.84,3.84,0,0,0,6.73,0l5.39-9.83a250.65,250.65,0,0,1,27.66-40.06,47.23,47.23,0,0,0,11-30.4h0A47.43,47.43,0,0,0,117.9,208.57Zm2,68.34a20.94,20.94,0,1,1,20.24-20.24A20.95,20.95,0,0,1,119.93,276.91Z"/></svg>